<?xml version="1.0" encoding="UTF-8" standalone="no"?><!DOCTYPE svg PUBLIC "-//W3C//DTD SVG 1.1//EN" "http://www.w3.org/Graphics/SVG/1.1/DTD/svg11.dtd"><svg width="100%" height="100%" viewBox="0 0 770 190" version="1.1" xmlns="http://www.w3.org/2000/svg" xmlns:xlink="http://www.w3.org/1999/xlink" xml:space="preserve" xmlns:serif="http://www.serif.com/" style="fill-rule:evenodd;clip-rule:evenodd;stroke-linejoin:round;stroke-miterlimit:2;"><rect id="Plan-de-travail1" serif:id="Plan de travail1" x="0" y="0" width="770" height="190" style="fill:none;"/><g><path d="M113.952,86.688c0,9.984 -2.136,18.84 -6.408,26.568c-4.272,7.728 -10.416,13.752 -18.432,18.072c-8.016,4.32 -17.448,6.48 -28.296,6.48l-38.448,0l0,-101.808l38.448,0c10.944,0 20.4,2.112 28.368,6.336c7.968,4.224 14.088,10.176 18.36,17.856c4.272,7.68 6.408,16.512 6.408,26.496Zm-55.296,29.088c9.6,0 17.064,-2.544 22.392,-7.632c5.328,-5.088 7.992,-12.24 7.992,-21.456c0,-9.216 -2.664,-16.368 -7.992,-21.456c-5.328,-5.088 -12.792,-7.632 -22.392,-7.632l-11.664,-0l0,58.176l11.664,0Z" style="fill:#414a7b;fill-rule:nonzero;"/><path d="M165.504,56.448c7.968,0 15.096,1.656 21.384,4.968c6.288,3.312 11.232,8.088 14.832,14.328c3.6,6.24 5.4,13.536 5.4,21.888c0,8.352 -1.8,15.648 -5.4,21.888c-3.6,6.24 -8.544,11.016 -14.832,14.328c-6.288,3.312 -13.416,4.968 -21.384,4.968c-7.968,-0 -15.12,-1.656 -21.456,-4.968c-6.336,-3.312 -11.304,-8.088 -14.904,-14.328c-3.6,-6.24 -5.4,-13.536 -5.4,-21.888c0,-8.352 1.8,-15.648 5.4,-21.888c3.6,-6.24 8.568,-11.016 14.904,-14.328c6.336,-3.312 13.488,-4.968 21.456,-4.968Zm0,21.312c-4.704,0 -8.664,1.704 -11.88,5.112c-3.216,3.408 -4.824,8.328 -4.824,14.76c0,6.432 1.608,11.328 4.824,14.688c3.216,3.36 7.176,5.04 11.88,5.04c4.704,-0 8.64,-1.68 11.808,-5.04c3.168,-3.36 4.752,-8.256 4.752,-14.688c0,-6.432 -1.584,-11.352 -4.752,-14.76c-3.168,-3.408 -7.104,-5.112 -11.808,-5.112Z" style="fill:#414a7b;fill-rule:nonzero;"/><rect x="219.936" y="31.248" width="24.624" height="106.56" style="fill:#414a7b;fill-rule:nonzero;"/><rect x="261.552" y="57.456" width="24.624" height="80.352" style="fill:#414a7b;fill-rule:nonzero;"/><path d="M376.32,109.152c0,5.376 -1.368,10.32 -4.104,14.832c-2.736,4.512 -6.768,8.112 -12.096,10.8c-5.328,2.688 -11.784,4.032 -19.368,4.032c-11.424,-0 -20.832,-2.784 -28.224,-8.352c-7.392,-5.568 -11.424,-13.344 -12.096,-23.328l26.208,-0c0.384,3.84 1.752,6.864 4.104,9.072c2.352,2.208 5.352,3.312 9,3.312c3.168,-0 5.664,-0.864 7.488,-2.592c1.824,-1.728 2.736,-4.032 2.736,-6.912c0,-2.592 -0.84,-4.752 -2.52,-6.48c-1.68,-1.728 -3.768,-3.144 -6.264,-4.248c-2.496,-1.104 -5.952,-2.424 -10.368,-3.96c-6.432,-2.208 -11.688,-4.344 -15.768,-6.408c-4.08,-2.064 -7.584,-5.136 -10.512,-9.216c-2.928,-4.08 -4.392,-9.384 -4.392,-15.912c0,-6.048 1.536,-11.28 4.608,-15.696c3.072,-4.416 7.32,-7.8 12.744,-10.152c5.424,-2.352 11.64,-3.528 18.648,-3.528c11.328,-0 20.328,2.688 27,8.064c6.672,5.376 10.44,12.768 11.304,22.176l-26.64,0c-0.48,-3.36 -1.704,-6.024 -3.672,-7.992c-1.968,-1.968 -4.632,-2.952 -7.992,-2.952c-2.88,-0 -5.208,0.768 -6.984,2.304c-1.776,1.536 -2.664,3.792 -2.664,6.768c0,2.4 0.792,4.44 2.376,6.12c1.584,1.68 3.576,3.048 5.976,4.104c2.4,1.056 5.856,2.4 10.368,4.032c6.528,2.208 11.856,4.392 15.984,6.552c4.128,2.16 7.68,5.304 10.656,9.432c2.976,4.128 4.464,9.504 4.464,16.128Z" style="fill:#fa1622;fill-rule:nonzero;"/><path d="M440.112,56.448c6.624,0 12.552,1.656 17.784,4.968c5.232,3.312 9.36,8.064 12.384,14.256c3.024,6.192 4.536,13.512 4.536,21.96c0,8.352 -1.512,15.648 -4.536,21.888c-3.024,6.24 -7.152,11.016 -12.384,14.328c-5.232,3.312 -11.16,4.968 -17.784,4.968c-6.144,-0 -11.424,-1.392 -15.84,-4.176c-4.416,-2.784 -7.632,-6.576 -9.648,-11.376l0,52.848l-24.624,-0l0,-118.656l24.624,-0l0,14.544c2.016,-4.8 5.232,-8.592 9.648,-11.376c4.416,-2.784 9.696,-4.176 15.84,-4.176Zm-7.92,21.6c-5.184,-0 -9.432,1.752 -12.744,5.256c-3.312,3.504 -4.968,8.28 -4.968,14.328c0,5.952 1.656,10.704 4.968,14.256c3.312,3.552 7.56,5.328 12.744,5.328c5.28,-0 9.528,-1.728 12.744,-5.184c3.216,-3.456 4.824,-8.256 4.824,-14.4c0,-6.144 -1.608,-10.944 -4.824,-14.4c-3.216,-3.456 -7.464,-5.184 -12.744,-5.184Z" style="fill:#fa1622;fill-rule:nonzero;"/><path d="M518.16,56.448c6.144,0 11.424,1.392 15.84,4.176c4.416,2.784 7.68,6.576 9.792,11.376l0,-14.544l24.48,-0l0,80.352l-24.48,0l0,-14.544c-2.112,4.8 -5.376,8.592 -9.792,11.376c-4.416,2.784 -9.696,4.176 -15.84,4.176c-6.624,-0 -12.552,-1.656 -17.784,-4.968c-5.232,-3.312 -9.36,-8.088 -12.384,-14.328c-3.024,-6.24 -4.536,-13.536 -4.536,-21.888c0,-8.448 1.512,-15.768 4.536,-21.96c3.024,-6.192 7.152,-10.944 12.384,-14.256c5.232,-3.312 11.16,-4.968 17.784,-4.968Zm7.92,21.6c-5.28,0 -9.528,1.728 -12.744,5.184c-3.216,3.456 -4.824,8.256 -4.824,14.4c0,6.144 1.608,10.944 4.824,14.4c3.216,3.456 7.464,5.184 12.744,5.184c5.184,0 9.432,-1.776 12.744,-5.328c3.312,-3.552 4.968,-8.304 4.968,-14.256c0,-6.048 -1.656,-10.824 -4.968,-14.328c-3.312,-3.504 -7.56,-5.256 -12.744,-5.256Z" style="fill:#fa1622;fill-rule:nonzero;"/><path d="M621.552,56.448c10.368,0 19.056,2.856 26.064,8.568c7.008,5.712 11.424,13.56 13.248,23.544l-26.064,0c-0.768,-3.456 -2.352,-6.144 -4.752,-8.064c-2.4,-1.92 -5.424,-2.88 -9.072,-2.88c-4.32,-0 -7.872,1.704 -10.656,5.112c-2.784,3.408 -4.176,8.376 -4.176,14.904c0,6.528 1.392,11.496 4.176,14.904c2.784,3.408 6.336,5.112 10.656,5.112c3.648,0 6.672,-0.96 9.072,-2.88c2.4,-1.92 3.984,-4.608 4.752,-8.064l26.064,0c-1.824,9.984 -6.24,17.832 -13.248,23.544c-7.008,5.712 -15.696,8.568 -26.064,8.568c-7.872,-0 -14.856,-1.656 -20.952,-4.968c-6.096,-3.312 -10.872,-8.088 -14.328,-14.328c-3.456,-6.24 -5.184,-13.536 -5.184,-21.888c0,-8.448 1.704,-15.768 5.112,-21.96c3.408,-6.192 8.184,-10.944 14.328,-14.256c6.144,-3.312 13.152,-4.968 21.024,-4.968Z" style="fill:#fa1622;fill-rule:nonzero;"/><path d="M750,95.472c0,2.016 -0.24,4.224 -0.72,6.624l-55.728,0c0.288,6.048 1.824,10.392 4.608,13.032c2.784,2.64 6.336,3.96 10.656,3.96c3.648,0 6.672,-0.912 9.072,-2.736c2.4,-1.824 3.984,-4.176 4.752,-7.056l26.064,0c-1.056,5.664 -3.36,10.728 -6.912,15.192c-3.552,4.464 -8.064,7.968 -13.536,10.512c-5.472,2.544 -11.568,3.816 -18.288,3.816c-7.872,-0 -14.856,-1.656 -20.952,-4.968c-6.096,-3.312 -10.872,-8.088 -14.328,-14.328c-3.456,-6.24 -5.184,-13.536 -5.184,-21.888c0,-8.448 1.704,-15.768 5.112,-21.96c3.408,-6.192 8.184,-10.944 14.328,-14.256c6.144,-3.312 13.152,-4.968 21.024,-4.968c7.968,0 14.976,1.632 21.024,4.896c6.048,3.264 10.728,7.848 14.04,13.752c3.312,5.904 4.968,12.696 4.968,20.376Zm-24.912,-3.744c0.096,-5.28 -1.32,-9.24 -4.248,-11.88c-2.928,-2.64 -6.552,-3.96 -10.872,-3.96c-4.512,-0 -8.256,1.344 -11.232,4.032c-2.976,2.688 -4.656,6.624 -5.04,11.808l31.392,0Z" style="fill:#fa1622;fill-rule:nonzero;"/></g><ellipse cx="273.733" cy="36" rx="12.443" ry="12.72" style="fill:#fa1622;"/></svg>